<?xml version="1.0" encoding="UTF-8"?>
<svg id="Layer_2" data-name="Layer 2" xmlns="http://www.w3.org/2000/svg" viewBox="0 0 386.47 94.88">
  <defs>
    <style>
      .cls-1 {
        stroke-linecap: round;
      }

      .cls-1, .cls-2 {
        fill: #fcfbf4;
        stroke: #9f8c76;
        stroke-miterlimit: 10;
      }
    </style>
  </defs>
  <g id="Layer_1-2" data-name="Layer 1">
    <path class="cls-1" d="M68.09,39.91v24.72c0,17.39-8.7,25.59-23.73,25.59-4.97,0-10.06-.99-15.41-4.35v-21c3.73,1.74,5.59,2.48,8.45,2.48,3.48,0,6.83-2.11,6.83-7.7v-18.14c0-9.57,4.59-16.52,11.06-19.01h-26.09c-3.85,0-5.22,1.62-5.22,3.98,0,4.72,7.33,5.96,12.05,5.96l-7.82,20.75C11.06,51.96.5,45.25.5,26.99S16.03.9,31.93.9h51.81v21.25c-8.7,0-15.65,4.35-15.65,17.77Z"/>
    <path class="cls-2" d="M83.9,21.75V.5h51.81c15.9,0,31.43,8.2,31.43,26.09s-10.56,24.97-27.71,26.21l-7.83-20.75c4.72,0,12.05-1.24,12.05-5.96,0-2.36-1.36-3.98-5.22-3.98h-26.09c6.46,2.48,11.06,9.44,11.06,19.01v1.37h7.95v18.76h-7.83c.75,4.1,3.73,5.72,6.71,5.72s4.72-.75,8.45-2.48v21c-5.34,3.35-10.44,4.35-15.4,4.35-15.03,0-23.73-8.2-23.73-25.59v-2.98h-8.57v-18.76h8.57v-2.98c0-13.42-6.96-17.77-15.65-17.77Z"/>
    <g>
      <path class="cls-2" d="M173.93,5.21h-7.98V.86h21.03v4.35h-7.98v19.14h-5.08V5.21Z"/>
      <path class="cls-2" d="M186.39,15.29c0-5.22,4.06-9.43,9.39-9.43,4.93,0,8.81,4.21,8.81,9.35,0,.87-.11,1.74-.11,1.74h-13.16c.58,2.5,2.65,3.7,5.04,3.7,1.74,0,3.55-.51,4.89-1.41l1.81,3.48c-2.03,1.34-4.39,1.99-6.74,1.99-5.29,0-9.93-3.44-9.93-9.43ZM200.02,13.73c-.36-2.28-2.17-3.81-4.39-3.81s-3.91,1.52-4.39,3.81h8.77Z"/>
      <path class="cls-2" d="M207.76,6.22h4.75v2.43c1.05-1.63,3.19-2.79,5.37-2.79,2.86,0,4.64,1.2,5.58,3.23,1.31-2.18,3.81-3.23,5.87-3.23,5.11,0,6.71,3.52,6.71,8.16v10.33h-4.86v-9.72c0-2.39-.58-4.17-3.15-4.17-2.39,0-3.7,1.92-3.7,4.31v9.57h-4.86v-9.72c0-2.39-.54-4.17-3.15-4.17-2.46,0-3.7,2.1-3.7,4.5v9.39h-4.86V6.22Z"/>
      <path class="cls-2" d="M239.47,6.22h4.6v2.18c1.49-1.78,3.62-2.54,5.8-2.54,5,0,8.19,4.21,8.19,9.39s-3.26,9.46-8.27,9.46c-2.1,0-4.17-.83-5.47-2.43v7.29h-4.86V6.22ZM253.1,15.29c0-2.86-1.85-4.93-4.5-4.93-2.46,0-4.31,2.03-4.31,4.93s1.81,4.93,4.31,4.93c2.65,0,4.5-2.07,4.5-4.93Z"/>
      <path class="cls-2" d="M260.16,22.25l1.74-3.73c1.23.94,2.94,1.92,5.66,1.92,1.12,0,2.97-.43,2.97-1.52s-1.56-1.34-3.12-1.78c-3.59-.94-6.53-2.14-6.53-5.62,0-3.7,3.62-5.66,7.03-5.66,2.97,0,4.86.73,6.74,1.81l-1.63,3.62c-1.78-.87-3.44-1.27-5.04-1.27-1.12,0-2.18.51-2.18,1.27,0,1.02,1.52,1.34,3.19,1.7,3.08.73,6.45,2.07,6.45,5.76,0,4.46-4.53,5.95-7.9,5.95-3.88,0-6.38-1.52-7.4-2.47Z"/>
      <path class="cls-2" d="M180.45,34.5h17.58v4.35h-12.51v4.79h10.66v4.31h-10.66v10.04h-5.08v-23.49Z"/>
      <path class="cls-2" d="M199.76,34.79c0-1.59,1.31-2.9,2.86-2.9s2.9,1.31,2.9,2.9-1.3,2.86-2.9,2.86-2.86-1.3-2.86-2.86ZM200.23,39.87h4.86v18.13h-4.86v-18.13Z"/>
      <path class="cls-2" d="M209.54,61.08l1.81-3.04c1.45,1.12,3.55,1.63,5.26,1.63,3.37,0,5.08-2.03,5.22-4.93.04-.11.04-.25.04-.4-.8,1.41-2.75,2.68-5.44,2.68-5.04,0-8.19-3.91-8.19-8.74s3.15-8.77,8.19-8.77c2.32,0,4.71,1.02,5.69,2.83v-2.47h4.6v13.74c0,5.95-3.59,9.72-9.61,9.72-3.26,0-5.91-.87-7.58-2.25ZM221.91,48.17c0-2.54-1.89-4.46-4.39-4.46s-4.35,1.92-4.35,4.57,1.89,4.5,4.35,4.5,4.39-1.89,4.39-4.6Z"/>
      <path class="cls-2" d="M229.83,48.93c0-5.22,4.06-9.43,9.39-9.43,4.93,0,8.81,4.21,8.81,9.35,0,.87-.11,1.74-.11,1.74h-13.16c.58,2.5,2.65,3.7,5.04,3.7,1.74,0,3.55-.51,4.9-1.41l1.81,3.48c-2.03,1.34-4.39,1.99-6.74,1.99-5.29,0-9.93-3.44-9.93-9.43ZM243.47,47.37c-.36-2.28-2.18-3.81-4.39-3.81s-3.91,1.52-4.39,3.81h8.77ZM240.17,31.71h4.82l-4.24,5.69h-3.99l3.41-5.69Z"/>
      <path class="cls-2" d="M167.51,65.56h10.08c6.89,0,10.51,4.06,10.51,9.06s-3.63,9.06-10.55,9.06h-4.97v5.37h-5.08v-23.49ZM177.81,79.34c3.01,0,4.97-2.1,4.97-4.71s-1.96-4.71-4.93-4.71h-5.26v9.43h5.22Z"/>
      <path class="cls-2" d="M191.28,65.2h4.86v8.01c1.42-1.89,3.41-2.65,5.58-2.65,4.71,0,6.45,2.97,6.45,8.05v10.44h-4.86v-9.82c0-2.65-.8-4.06-3.19-4.06-2.57,0-3.99,2.07-3.99,4.68v9.21h-4.86v-23.85Z"/>
      <path class="cls-2" d="M211.1,79.99c0-5.26,4.28-9.43,9.68-9.43s9.72,4.17,9.72,9.43-4.28,9.43-9.72,9.43-9.68-4.17-9.68-9.43ZM225.53,79.99c0-2.83-2.03-4.93-4.75-4.93s-4.75,2.1-4.75,4.93,2.03,4.93,4.75,4.93,4.75-2.07,4.75-4.93Z"/>
      <path class="cls-2" d="M234.87,83.21v-8.37h-2.65v-3.91h2.65v-3.48l4.86-1.09v4.57h5v3.91h-5v8.3c0,1.56.76,2.07,1.63,2.07,1.16,0,2.17-.65,2.32-.76l1.38,3.59c-1.09.72-2.68,1.38-4.6,1.38-3.62,0-5.58-2.1-5.58-6.2Z"/>
      <path class="cls-2" d="M246.79,79.99c0-5.26,4.28-9.43,9.68-9.43s9.72,4.17,9.72,9.43-4.28,9.43-9.72,9.43-9.68-4.17-9.68-9.43ZM261.22,79.99c0-2.83-2.03-4.93-4.75-4.93s-4.75,2.1-4.75,4.93,2.03,4.93,4.75,4.93,4.75-2.07,4.75-4.93Z"/>
      <path class="cls-2" d="M270.09,92.13l1.81-3.04c1.45,1.12,3.55,1.63,5.26,1.63,3.37,0,5.08-2.03,5.22-4.93.04-.11.04-.25.04-.4-.8,1.41-2.75,2.68-5.44,2.68-5.04,0-8.19-3.91-8.19-8.74s3.15-8.77,8.19-8.77c2.32,0,4.71,1.02,5.69,2.83v-2.47h4.6v13.74c0,5.95-3.59,9.72-9.61,9.72-3.26,0-5.91-.87-7.57-2.25ZM282.45,79.23c0-2.54-1.89-4.46-4.39-4.46s-4.35,1.92-4.35,4.57,1.89,4.5,4.35,4.5,4.39-1.89,4.39-4.6Z"/>
      <path class="cls-2" d="M290.92,70.93h4.79v3.48c.51-1.49,2.36-3.84,6.34-3.84v5.29c-4.21,0-6.27,1.92-6.27,6.24v6.96h-4.86v-18.13Z"/>
      <path class="cls-2" d="M304,79.99c0-5.22,3.19-9.43,8.19-9.43,2.1,0,4.35.83,5.66,2.57v-2.21h4.75v18.13h-4.75v-2.17c-1.27,1.74-3.55,2.54-5.66,2.54-5,0-8.19-4.21-8.19-9.43ZM317.74,79.99c0-2.83-1.81-4.93-4.31-4.93s-4.5,2.1-4.5,4.93,1.89,4.93,4.5,4.93,4.31-2.03,4.31-4.93Z"/>
      <path class="cls-2" d="M326.28,70.93h4.6v2.18c1.49-1.78,3.63-2.54,5.8-2.54,5,0,8.19,4.21,8.19,9.39s-3.26,9.46-8.27,9.46c-2.1,0-4.17-.83-5.47-2.43v7.29h-4.86v-23.35ZM339.91,79.99c0-2.86-1.85-4.93-4.5-4.93-2.46,0-4.31,2.03-4.31,4.93s1.81,4.93,4.31,4.93c2.65,0,4.5-2.07,4.5-4.93Z"/>
      <path class="cls-2" d="M348.02,65.2h4.86v8.01c1.41-1.89,3.41-2.65,5.58-2.65,4.71,0,6.45,2.97,6.45,8.05v10.44h-4.86v-9.82c0-2.65-.8-4.06-3.19-4.06-2.57,0-3.99,2.07-3.99,4.68v9.21h-4.86v-23.85Z"/>
      <path class="cls-2" d="M370.05,89.96c2.25,0,3.08-.76,3.73-2.17l.4-.8-7.58-16.06h4.93l3.66,8.48c.54,1.27,1.2,3.08,1.2,3.08,0,0,.76-2.14,1.16-3.19l3.3-8.37h4.86l-8.05,18.63c-1.96,4.46-5.37,4.82-7.61,4.82v-4.42Z"/>
    </g>
  </g>
</svg>